<svg width="149" height="42" viewBox="0 0 149 42" fill="none" xmlns="http://www.w3.org/2000/svg"><path d="m41.44 38.79-8.808-8.78c2.169-2.949 3.286-6.553 2.958-10.222-.395-4.586-2.761-9.107-6.77-13.17C17.315-4.716 3.38 1.902 2.853 2.099l-.526.196-.263.59C2 3.08-4.837 17.299 6.732 28.83c4.602 4.587 9.729 6.946 14.593 6.946 3.09 0 6.245-1.114 8.809-3.08l8.808 8.78c.395.393.92.524 1.315.524.394 0 .92-.197 1.315-.524.591-.917.591-1.966-.132-2.687zM9.296 26.21C.685 17.625 4.169 7.6 5.089 5.045 7.653 3.932 17.71.722 26.255 9.24c3.484 3.473 5.325 7.142 5.654 10.746.197 2.752-.395 5.307-2.038 7.273l-4.733-4.718v-8.517c0-1.114-.723-1.835-1.84-1.835-1.118 0-1.841.72-1.841 1.835v4.914l-5.062-5.111a1.79 1.79 0 0 0-2.563 0 1.776 1.776 0 0 0 0 2.555l3.484 3.473h-4.93c-1.118 0-1.841.72-1.841 1.835 0 1.113.723 1.834 1.84 1.834h8.612l1.117 1.114 5.127 5.11c-4.864 3.932-11.897 2.425-17.945-3.538zM54.212 32.224c-1.027 0-2.175-.037-3.444-.112a61.26 61.26 0 0 1-3.332-.28V29.62c2.427.243 4.452.364 6.076.364 1.008 0 1.801-.037 2.38-.112.597-.093 1.101-.252 1.512-.476.373-.224.616-.55.728-.98.112-.448.168-1.036.168-1.764 0-.877-.047-1.493-.14-1.848a1.177 1.177 0 0 0-.672-.812c-.336-.168-.924-.29-1.764-.364l-4.76-.532c-1.157-.13-2.035-.401-2.632-.812-.579-.43-.97-.98-1.176-1.652-.187-.69-.28-1.587-.28-2.688 0-1.53.261-2.688.784-3.472.541-.784 1.288-1.307 2.24-1.568.97-.261 2.268-.392 3.892-.392 1.083 0 2.184.047 3.304.14 1.12.093 2.007.205 2.66.336v2.128a26.336 26.336 0 0 0-2.632-.252 41.031 41.031 0 0 0-2.912-.112c-1.045 0-1.885.047-2.52.14-.635.093-1.13.252-1.484.476-.392.224-.644.523-.756.896-.112.373-.168.905-.168 1.596 0 .765.056 1.325.168 1.68.112.336.327.588.644.756.317.15.84.261 1.568.336l4.704.532c1.12.112 1.988.308 2.604.588.616.28 1.064.784 1.344 1.512.261.672.392 1.745.392 3.22 0 1.699-.261 2.968-.784 3.808-.523.821-1.223 1.353-2.1 1.596-.877.224-2.081.336-3.612.336zM65.409 32V12.736h2.408V32H65.41zm25.456 0V16.852h-.112L84.145 32h-1.764l-6.58-15.148h-.112V32h-2.268V12.736h3.248l6.58 14.98h.14l6.58-14.98h3.248V32h-2.352zm7.958-19.264h8.456c1.55 0 2.726.252 3.528.756.803.504 1.335 1.185 1.596 2.044.262.859.392 1.97.392 3.332 0 1.307-.13 2.399-.392 3.276-.261.859-.802 1.55-1.624 2.072-.802.523-1.988.784-3.556.784h-5.992v7h-2.408V12.736zm7.588 10.024c1.214 0 2.1-.121 2.66-.364.56-.261.924-.653 1.092-1.176.168-.523.252-1.307.252-2.352s-.084-1.83-.252-2.352c-.149-.523-.504-.905-1.064-1.148-.541-.261-1.418-.392-2.632-.392h-5.236v7.784h5.18zM117.089 32V12.736h2.408v16.94h8.988V32h-11.396zm15.066 0V12.736h12.544v2.24h-10.136v6.188h8.792v2.24h-8.792v6.356h10.136V32h-12.544z" fill="#E84E4E"/><path d="m50.768 32.112-.03.5.03-.5zm-3.332-.28h-.5v.446l.443.05.057-.496zm0-2.212.05-.498-.55-.055v.553h.5zm8.456.252.064.496.013-.002-.077-.494zm1.512-.476.24.439.008-.005.01-.005-.258-.429zm.728-.98.484.126.001-.005-.485-.121zm.028-3.612-.485.121.002.006.483-.127zm-.672-.812-.224.447.01.005.214-.452zm-1.764-.364-.056.497.012.001.044-.498zm-4.76-.532-.056.497.056-.497zm-2.632-.812-.298.402.007.005.008.005.283-.412zm-1.176-1.652-.483.13.002.008.003.008.478-.146zm.504-6.16-.411-.284-.005.007.416.277zm2.24-1.568-.13-.483h-.002l.132.483zm9.856.084h.5v-.41l-.402-.08-.098.49zm0 2.128-.078.494.578.091v-.585h-.5zm-2.632-.252-.036.499h.01l.026-.499zm-5.432.028.073.495-.073-.495zm-1.484.476.248.434.01-.005.009-.006-.267-.423zm-.756 4.172-.477.15.003.008.474-.158zm.644.756-.234.442.01.005.011.005.213-.452zm1.568.336.056-.497h-.005l-.051.497zm4.704.532-.056.497h.006l.05-.497zm2.604.588.207-.455-.207.455zm1.344 1.512-.467.18.001.001.466-.181zm-.392 7.028.422.268.003-.004-.425-.264zm-2.1 1.596.124.485.01-.003-.134-.482zm-3.612-.164c-1.015 0-2.153-.037-3.415-.111l-.058.998c1.277.075 2.435.113 3.473.113v-1zm-3.414-.111a60.77 60.77 0 0 1-3.305-.278l-.114.994a61.75 61.75 0 0 0 3.36.282l.059-.998zm-2.862.219V29.62h-1v2.212h1zm-.55-1.715c2.436.244 4.48.367 6.126.367v-1c-1.601 0-3.609-.12-6.026-.362l-.1.995zm6.126.367c1.016 0 1.834-.037 2.444-.116l-.128-.992c-.548.07-1.316.108-2.316.108v1zm2.457-.118c.639-.1 1.2-.273 1.674-.531l-.478-.878c-.348.19-.794.334-1.35.421l.154.988zm1.692-.541c.488-.293.81-.73.955-1.283l-.968-.252a1.06 1.06 0 0 1-.501.677l.514.858zm.956-1.288c.126-.503.183-1.137.183-1.885h-1c0 .708-.055 1.25-.153 1.643l.97.242zm.183-1.885c0-.877-.045-1.552-.156-1.975l-.968.254c.076.286.124.844.124 1.721h1zm-.155-1.97a1.676 1.676 0 0 0-.943-1.142l-.428.904a.679.679 0 0 1 .4.481l.971-.242zm-.933-1.137c-.428-.214-1.1-.34-1.944-.415l-.088.996c.836.074 1.34.191 1.584.313l.448-.894zm-1.933-.414-4.76-.532-.11.994 4.76.532.11-.994zM51.02 22.6c-1.12-.126-1.904-.383-2.405-.727l-.566.824c.694.477 1.664.762 2.859.897l.112-.994zm-2.39-.716a2.665 2.665 0 0 1-.996-1.397l-.956.292a3.663 3.663 0 0 0 1.356 1.908l.596-.803zm-.991-1.381c-.171-.632-.263-1.48-.263-2.558h-1c0 1.124.095 2.069.297 2.819l.966-.262zm-.263-2.558c0-1.488.257-2.53.7-3.195l-.832-.554c-.602.902-.868 2.176-.868 3.749h1zm.695-3.188c.472-.683 1.118-1.138 1.961-1.37l-.264-.964c-1.061.291-1.909.881-2.52 1.766l.823.568zm1.959-1.37c.91-.244 2.158-.374 3.762-.374v-1c-1.645 0-2.991.132-4.022.41l.26.965zm3.762-.374c1.068 0 2.156.046 3.262.138l.084-.996a40.298 40.298 0 0 0-3.346-.142v1zm3.262.138c1.112.093 1.978.203 2.604.328l.196-.98c-.68-.136-1.588-.25-2.716-.344l-.084.996zm2.202-.162v2.128h1v-2.128h-1zm.578 1.634c-.732-.115-1.628-.2-2.683-.257l-.054.998c1.035.056 1.894.139 2.581.247l.156-.988zm-2.674-.257a41.533 41.533 0 0 0-2.948-.113v1c.882 0 1.841.037 2.876.11l.072-.997zm-2.948-.113c-1.057 0-1.924.047-2.593.145l.146.99c.6-.089 1.413-.135 2.447-.135v-1zm-2.593.145c-.67.099-1.242.273-1.678.548l.534.846c.273-.173.691-.316 1.29-.404l-.146-.99zm-1.66.537c-.484.277-.831.67-.986 1.186l.958.288c.07-.231.226-.435.525-.606l-.496-.868zm-.986 1.186c-.133.443-.189 1.032-.189 1.74h1c0-.673.056-1.148.147-1.452l-.958-.288zm-.189 1.74c0 .774.055 1.399.191 1.83l.954-.3c-.088-.278-.145-.774-.145-1.53h-1zm.194 1.838c.153.46.455.813.884 1.04l.468-.884a.79.79 0 0 1-.404-.472l-.948.316zm.905 1.05c.399.188.993.306 1.73.381l.102-.994c-.72-.074-1.17-.18-1.406-.291l-.426.904zm1.725.38 4.704.533.112-.994-4.704-.532-.112.994zm4.71.534c1.097.11 1.903.298 2.447.545l.414-.91c-.688-.313-1.618-.516-2.761-.63l-.1.994zm2.447.545c.478.218.844.61 1.084 1.236l.934-.359c-.32-.83-.85-1.445-1.604-1.787l-.414.91zm1.085 1.238c.226.58.358 1.575.358 3.039h1c0-1.486-.13-2.638-.426-3.401l-.932.362zm.358 3.039c0 1.664-.26 2.822-.709 3.544l.85.528c.595-.958.859-2.339.859-4.072h-1zm-.706 3.54c-.461.724-1.062 1.175-1.811 1.382l.266.964c1.006-.278 1.805-.892 2.389-1.81l-.844-.536zm-1.802 1.38c-.818.209-1.975.32-3.488.32v1c1.548 0 2.8-.113 3.736-.351l-.248-.97zm7.71.596h-.5v.5h.5V32zm0-19.264v-.5h-.5v.5h.5zm2.407 0h.5v-.5h-.5v.5zm0 19.264v.5h.5V32h-.5zm-1.908 0V12.736h-1V32h1zm-.5-18.764h2.408v-1H65.41v1zm1.908-.5V32h1V12.736h-1zm.5 18.764H65.41v1h2.408v-1zm23.048.5h-.5v.5h.5V32zm0-15.148h.5v-.5h-.5v.5zm-.112 0v-.5h-.327l-.131.3.458.2zM84.145 32v.5h.328l.13-.3-.458-.2zm-1.764 0-.459.2.131.3h.328V32zm-6.58-15.148.459-.2-.131-.3h-.328v.5zm-.112 0v-.5h-.5v.5h.5zm0 15.148v.5h.5V32h-.5zm-2.268 0h-.5v.5h.5V32zm0-19.264v-.5h-.5v.5h.5zm3.248 0 .458-.201-.131-.299h-.327v.5zm6.58 14.98-.458.201.132.299h.326v-.5zm.14 0v.5h.327l.13-.299-.457-.201zm6.58-14.98v-.5h-.326l-.132.299.458.201zm3.248 0h.5v-.5h-.5v.5zm0 19.264v.5h.5V32h-.5zm-1.852 0V16.852h-1V32h1zm-.5-15.648h-.112v1h.112v-1zm-.57.3L83.687 31.8l.916.4 6.608-15.148-.916-.4zM84.145 31.5h-1.764v1h1.764v-1zm-1.305.3-6.58-15.147-.918.398 6.58 15.148.918-.398zM75.8 16.353h-.112v1h.112v-1zm-.612.5V32h1V16.852h-1zm.5 14.648h-2.268v1h2.268v-1zm-1.768.5V12.736h-1V32h1zm-.5-18.764h3.248v-1h-3.248v1zm2.79-.299 6.58 14.98.916-.402-6.58-14.98-.916.402zm7.038 15.279h.14v-1h-.14v1zm.598-.299 6.58-14.98-.916-.402-6.58 14.98.916.402zm6.122-14.681h3.248v-1H89.97v1zm2.748-.5V32h1V12.736h-1zm.5 18.764h-2.352v1h2.352v-1zm5.606-18.764v-.5h-.5v.5h.5zm11.984.756-.265.423.265-.423zm1.596 2.044-.478.146.478-.146zm0 6.608.479.146.001-.003-.48-.143zm-1.624 2.072-.268-.422-.004.003.272.419zm-9.548.784v-.5h-.5v.5h.5zm0 7v.5h.5V32h-.5zm-2.408 0h-.5v.5h.5V32zm10.248-9.604.199.459.013-.006-.212-.453zm1.092-1.176-.476-.153.476.153zm0-4.704-.48.137.002.008.002.008.476-.153zm-1.064-1.148-.217.45.009.005.01.004.198-.459zm-7.868-.392v-.5h-.5v.5h.5zm0 7.784h-.5v.5h.5v-.5zm-2.408-9.524h8.456v-1h-8.456v1zm8.456 0c1.509 0 2.575.248 3.263.68l.531-.847c-.918-.577-2.204-.833-3.794-.833v1zm3.263.68c.706.443 1.159 1.029 1.383 1.766l.957-.292c-.299-.98-.91-1.757-1.809-2.321l-.531.846zm1.383 1.766c.242.793.37 1.85.37 3.186h1c0-1.39-.132-2.554-.413-3.478l-.957.292zm.37 3.186c0 1.277-.128 2.317-.371 3.133l.959.286c.279-.939.412-2.083.412-3.419h-1zm-.37 3.13c-.223.735-.684 1.332-1.414 1.796l.537.844c.913-.581 1.535-1.366 1.834-2.348l-.957-.292zm-1.418 1.799c-.685.446-1.757.703-3.284.703v1c1.61 0 2.909-.266 3.829-.865l-.545-.838zm-3.284.703h-5.992v1h5.992v-1zm-6.492.5v7h1v-7h-1zm.5 6.5h-2.408v1h2.408v-1zm-1.908.5V12.736h-1V32h1zm7.088-8.74c1.228 0 2.201-.12 2.859-.405l-.397-.918c-.462.2-1.262.323-2.462.323v1zm2.872-.41c.668-.313 1.14-.805 1.356-1.477l-.952-.306c-.119.373-.376.665-.827.876l.423.906zm1.356-1.477c.193-.599.276-1.446.276-2.505h-1c0 1.031-.084 1.752-.228 2.199l.952.306zm.276-2.505c0-1.06-.083-1.906-.276-2.505l-.952.306c.144.447.228 1.168.228 2.199h1zm-.271-2.49c-.196-.685-.667-1.175-1.346-1.469l-.397.918c.441.191.679.467.782.826l.961-.274zm-1.327-1.46c-.649-.313-1.622-.442-2.85-.442v1c1.2 0 1.981.133 2.415.342l.435-.9zm-2.85-.442h-5.236v1h5.236v-1zm-5.736.5v7.784h1v-7.784h-1zm.5 8.284h5.18v-1h-5.18v1zM117.089 32h-.5v.5h.5V32zm0-19.264v-.5h-.5v.5h.5zm2.408 0h.5v-.5h-.5v.5zm0 16.94h-.5v.5h.5v-.5zm8.988 0h.5v-.5h-.5v.5zm0 2.324v.5h.5V32h-.5zm-10.896 0V12.736h-1V32h1zm-.5-18.764h2.408v-1h-2.408v1zm1.908-.5v16.94h1v-16.94h-1zm.5 17.44h8.988v-1h-8.988v1zm8.488-.5V32h1v-2.324h-1zm.5 1.824h-11.396v1h11.396v-1zm3.67.5h-.5v.5h.5V32zm0-19.264v-.5h-.5v.5h.5zm12.544 0h.5v-.5h-.5v.5zm0 2.24v.5h.5v-.5h-.5zm-10.136 0v-.5h-.5v.5h.5zm0 6.188h-.5v.5h.5v-.5zm8.792 0h.5v-.5h-.5v.5zm0 2.24v.5h.5v-.5h-.5zm-8.792 0v-.5h-.5v.5h.5zm0 6.356h-.5v.5h.5v-.5zm10.136 0h.5v-.5h-.5v.5zm0 2.24v.5h.5V32h-.5zm-12.044 0V12.736h-1V32h1zm-.5-18.764h12.544v-1h-12.544v1zm12.044-.5v2.24h1v-2.24h-1zm.5 1.74h-10.136v1h10.136v-1zm-10.636.5v6.188h1v-6.188h-1zm.5 6.688h8.792v-1h-8.792v1zm8.292-.5v2.24h1v-2.24h-1zm.5 1.74h-8.792v1h8.792v-1zm-9.292.5v6.356h1v-6.356h-1zm.5 6.856h10.136v-1h-10.136v1zm9.636-.5V32h1v-2.24h-1zm.5 1.74h-12.544v1h12.544v-1z" fill="#E84E4E"/></svg>