<svg width="208" height="128" viewBox="0 0 208 128" fill="none" xmlns="http://www.w3.org/2000/svg"><g filter="url(#a)"><path d="M26.314 14.678h-7.84V36h-5.273V14.678H5.467v-4.272h20.848v4.272zM48.728 36h-5.273V25.031H33.17V36h-5.273V10.406h5.273v10.371h10.284v-10.37h5.273V36zm18.581-11.092H57.185v6.856h11.882V36H51.911V10.406h17.121v4.272H57.185v6.1h10.124v4.13zM68.974 109H54.324V78.531H25.76V109H11.11V37.906H25.76v28.809h28.564V37.906h14.649V109zm57.65-71.094v46.826c0 7.78-2.441 13.933-7.324 18.457-4.85 4.525-11.491 6.788-19.922 6.788-8.3 0-14.893-2.198-19.775-6.592-4.883-4.395-7.374-10.433-7.471-18.116V37.906h14.648V84.83c0 4.655 1.107 8.057 3.32 10.205 2.247 2.116 5.34 3.174 9.278 3.174 8.236 0 12.419-4.33 12.549-12.988V37.906h14.697zM129.635 109V37.906h24.902c8.626 0 15.169 1.66 19.629 4.98 4.46 3.288 6.689 8.122 6.689 14.503 0 3.483-.895 6.559-2.685 9.228-1.79 2.637-4.281 4.574-7.471 5.81 3.646.912 6.511 2.751 8.594 5.518 2.116 2.767 3.174 6.153 3.174 10.157 0 6.835-2.181 12.011-6.543 15.527s-10.58 5.306-18.653 5.371h-27.636zm14.648-30.957v19.19h12.549c3.451 0 6.136-.814 8.057-2.442 1.953-1.66 2.929-3.939 2.929-6.836 0-6.51-3.369-9.814-10.107-9.912h-13.428zm0-10.352h10.84c7.389-.13 11.084-3.076 11.084-8.838 0-3.222-.944-5.533-2.832-6.933-1.855-1.432-4.801-2.148-8.838-2.148h-10.254v17.92z" fill="#F50A0A"/></g><defs><filter id="a" x="-4" y="-6" width="231" height="147" filterUnits="userSpaceOnUse" color-interpolation-filters="sRGB"><feFlood flood-opacity="0" result="BackgroundImageFix"/><feColorMatrix in="SourceAlpha" values="0 0 0 0 0 0 0 0 0 0 0 0 0 0 0 0 0 0 127 0"/><feOffset dx="7" dy="6"/><feGaussianBlur stdDeviation="6"/><feColorMatrix values="0 0 0 0 0.0666667 0 0 0 0 0.0630556 0 0 0 0 0.0630556 0 0 0 0.9 0"/><feBlend in2="BackgroundImageFix" result="effect1_dropShadow"/><feBlend in="SourceGraphic" in2="effect1_dropShadow" result="shape"/></filter></defs></svg>